<svg width="512" height="512" xmlns="http://www.w3.org/2000/svg">

 <g>
  <title>background</title>
  <rect fill="none" id="canvas_background" height="402" width="582" y="-1" x="-1"/>
 </g>
 <g>
  <title>Layer 1</title>
  <path fill="#19b6ea" id="svg_2" d="m430.4,147l-67.5,0l-40.4,-40.8c0,0 -0.2,-0.2 -0.3,-0.2l-0.2,-0.2l0,0c-6,-6 -14.1,-9.8 -23.3,-9.8l-84,0c-9.8,0 -18.5,4.2 -24.6,10.9l0,0.1l-39.5,40l-69,0c-18.6,0 -33.6,14.6 -33.6,33.2l0,202.1c0,18.6 15,33.7 33.6,33.7l348.8,0c18.5,0 33.6,-15.1 33.6,-33.7l0,-202.1c0,-18.6 -15.1,-33.2 -33.6,-33.2zm-174.4,218.5c-50.9,0 -92.4,-41.6 -92.4,-92.6c0,-51.1 41.5,-92.6 92.4,-92.6c51,0 92.4,41.5 92.4,92.6c0,51 -41.4,92.6 -92.4,92.6zm168.1,-165c-7.7,0 -14,-6.3 -14,-14.1s6.3,-14.1 14,-14.1c7.7,0 14,6.3 14,14.1s-6.3,14.1 -14,14.1z"/>
  <path fill="#19b6ea" id="svg_3" d="m256,202.9c-38.6,0 -69.8,31.3 -69.8,70c0,38.6 31.2,70 69.8,70c38.5,0 69.8,-31.3 69.8,-70c0,-38.7 -31.3,-70 -69.8,-70z"/>
 </g>
</svg>